<svg xmlns="http://www.w3.org/2000/svg" viewBox="0 0 415 334.75"><defs><style>.cls-1{fill:#8a181a;}.cls-1,.cls-10,.cls-2,.cls-4,.cls-5,.cls-6,.cls-7,.cls-8,.cls-9{opacity:0.5;}.cls-2{fill:#353516;}.cls-3{fill:#737ebd;}.cls-4{fill:#f58b75;}.cls-5{fill:#f04d60;}.cls-6{fill:#e74a9a;}.cls-7{fill:#f36d3a;}.cls-8{fill:#902580;}.cls-9{fill:#ece711;}.cls-10{fill:#2b3493;}.cls-11{fill:#fff;}</style></defs><title>Asset 1</title><g id="Layer_2" data-name="Layer 2"><g id="Layer_1-2" data-name="Layer 1"><circle class="cls-1" cx="199.13" cy="165.75" r="114.5"/><circle class="cls-2" cx="211.5" cy="20.5" r="20.5"/><circle class="cls-3" cx="393" cy="181" r="22"/><circle class="cls-4" cx="15.5" cy="196.5" r="15.5"/><circle class="cls-5" cx="60" cy="304" r="13.5"/><circle class="cls-6" cx="385.5" cy="280.25" r="14.5"/><circle class="cls-7" cx="264.63" cy="232.25" r="82.25"/><circle class="cls-8" cx="130.63" cy="165.75" r="95.5"/><circle class="cls-9" cx="199.13" cy="138.75" r="85"/><circle class="cls-10" cx="174.13" cy="244.25" r="90.5"/><path class="cls-11" d="M192.45,248a61.93,61.93,0,0,1,0-123.52v.19h0v-9.48a71.2,71.2,0,0,0,0,142.1V248Z"/><path class="cls-11" d="M205.72,115.14v9.41h.05v-.12a61.93,61.93,0,0,1,0,123.52v-.18h-.05v9.46a71.2,71.2,0,0,0,0-142.1Z"/><path class="cls-11" d="M250.63,181.11a51.71,51.71,0,0,0-103,0h9.32a42.44,42.44,0,0,1,84.37,0Z"/><path class="cls-11" d="M241.31,190.43a42.43,42.43,0,0,1-84.35,0h-9.33a51.71,51.71,0,0,0,103,0Z"/><path class="cls-11" d="M199.13,209.55a23.78,23.78,0,1,1,23.77-23.78A23.8,23.8,0,0,1,199.13,209.55Zm0-40.56a16.78,16.78,0,1,0,16.77,16.78A16.8,16.8,0,0,0,199.13,169Z"/></g></g></svg>